<svg width="24" height="24" viewBox="0 0 24 24" fill="none" xmlns="http://www.w3.org/2000/svg">
<path fill-rule="evenodd" clip-rule="evenodd" d="M19.659 6.15092C20.2637 5.01069 20.0195 3.81792 19.2828 3.0114C18.5709 2.23198 17.4389 1.84253 16.2688 2.05955C11.6838 2.90996 8.58259 5.56106 6.65681 9.06049C4.75002 12.5254 4 16.8033 4 20.9999C4 21.5522 4.44772 21.9999 5 21.9999C5.55228 21.9999 6 21.5522 6 20.9999C6 20.3168 6.02104 19.636 6.06439 18.9614C12.1381 18.9314 15.3042 15.9957 16.7859 13.8401C17.709 12.4971 17.3596 10.9667 16.4649 9.91485C16.6308 9.77778 16.8102 9.62389 16.9979 9.45421C17.8512 8.68284 18.9178 7.54853 19.659 6.15092Z" fill="black"/>
</svg>
