<svg width="24" height="24" viewBox="0 0 24 24" fill="none" xmlns="http://www.w3.org/2000/svg">
<path fill-rule="evenodd" clip-rule="evenodd" d="M9.04556 4.86714C7.88703 3.77499 6.06226 3.7956 4.92888 4.92898C3.7956 6.06227 3.77489 7.88681 4.86674 9.04536C3.27549 9.09253 2 10.3973 2 12C2 13.6028 3.27565 14.9076 4.86705 14.9547C3.7751 16.1132 3.79579 17.9378 4.9291 19.0711C6.06242 20.2045 7.88703 20.2251 9.04557 19.1331C9.09271 20.7245 10.3975 22 12.0002 22C13.6029 22 14.9076 20.7246 14.9549 19.1333C16.1134 20.225 17.9379 20.2043 19.0711 19.071C20.2044 17.9378 20.2251 16.1132 19.1332 14.9547C20.7245 14.9075 22 13.6027 22 12C22 10.3972 20.7244 9.09237 19.133 9.04535C20.2249 7.8868 20.2042 6.06223 19.0709 4.92893C17.9377 3.79577 16.1134 3.77495 14.9549 4.86647C14.9075 3.27533 13.6029 2 12.0002 2C10.3974 2 9.09253 3.2757 9.04556 4.86714Z" fill="#C03540"/>
</svg>
