<svg width="33" height="32" viewBox="0 0 33 32" fill="none" xmlns="http://www.w3.org/2000/svg">
<path d="M29.2942 8.48751C28.9838 9.85993 28.2926 11.5122 27.2463 13.3951C26.1976 15.278 25.0008 17.0243 24.2202 18.1101C24.5353 18.9631 24.6951 19.946 24.6951 21.0542C24.6975 21.3789 24.674 23.7006 23.5759 26.1476C21.9747 29.7052 18.8452 31.7761 14.7564 31.9843C14.6553 31.991 14.4531 32 14.1686 32C12.8801 32 10.3595 31.7873 7.97537 30.3477C5.96034 29.132 3.53149 26.6917 3.0683 21.9229C2.40054 21.099 1.93969 19.9751 1.69516 18.5646C1.49531 17.4206 1.50001 16.4355 1.50001 16.2429C1.50236 14.1429 2.05255 12.5533 3.13178 11.5189C4.22747 10.4689 5.46423 10.3861 5.81927 10.3861H5.84983L5.85453 10.3883C6.31068 10.3905 6.74096 10.442 7.14067 10.5316C7.59681 10.0211 8.11644 9.66067 8.64312 9.42559V5.82551C8.64312 4.47996 8.8853 3.32247 9.36731 2.38438C10.1221 0.913454 11.6715 0 13.4115 0C14.3285 0 15.2125 0.257469 15.972 0.750018C16.9501 1.38361 17.4509 2.1605 17.632 2.48513C18.0035 3.12097 18.4831 4.26726 18.8194 6.99195L20.3594 4.71951C21.8125 2.52095 23.7006 2.19184 24.6975 2.19184C26.3199 2.19184 27.5143 2.99559 27.8011 3.20828C28.8569 3.98293 29.969 5.5255 29.2942 8.48751Z" fill="white"/>
<path d="M14.1148 25.0357C14.1148 25.0357 14.3311 22.0311 16.3626 21.2498C16.3626 21.2498 10.9594 21.2498 10.8301 17.381C10.8301 17.381 10.9171 15.8586 12.4736 16.022C12.4736 16.022 16.4496 16.5974 19.1723 16.8459C19.1723 16.8459 22.2854 16.5997 22.2854 21.0841C22.2854 21.0841 22.3841 29.3925 14.5498 29.7686C14.5498 29.7686 5.73256 30.5097 5.29993 21.0035" stroke="black" stroke-width="0.951515" stroke-linecap="round" stroke-linejoin="round"/>
<path d="M12.9691 16.0925C12.9691 16.0925 13.4746 11.3372 10.2251 11.3372C10.2251 11.3372 6.97571 11.0618 8.07845 18.6672C8.07845 18.6672 8.46641 21.8531 10.7095 21.8352C10.7095 21.8352 12.3154 21.9292 12.5952 20.2792" stroke="black" stroke-width="0.951515" stroke-miterlimit="10" stroke-linecap="round"/>
<path d="M8.08336 13.6207C8.08336 13.6207 7.36623 12.6446 5.76032 12.6446C5.76032 12.6446 3.78997 12.5975 3.78997 16.2782C3.78997 16.2782 3.70533 20.7918 5.93667 21.2552C5.93667 21.2552 7.84824 21.759 8.54421 20.2343" stroke="black" stroke-width="0.951515" stroke-miterlimit="10" stroke-linecap="round"/>
<path d="M21.4291 17.9279C21.4291 17.9279 29.6114 7.40304 26.3009 4.99626C26.3009 4.99626 24.0366 3.27234 22.2826 5.93882L16.79 14.0368C16.79 14.0368 16.823 5.77539 15.5016 3.56339C15.5016 3.56339 15.2288 3.03278 14.5893 2.61636C13.5077 1.91559 11.9935 2.26262 11.4198 3.38429C11.14 3.93057 10.9354 4.71417 10.9354 5.84031V11.4195" stroke="black" stroke-width="0.951515" stroke-linecap="round" stroke-linejoin="round"/>
<g opacity="0.6">
<path d="M13.9993 3.37109L15.6216 3.81887" stroke="black" stroke-width="0.475757" stroke-linecap="round" stroke-linejoin="round"/>
<path d="M20.9797 15.3496L22.6021 15.7974" stroke="black" stroke-width="0.475757" stroke-linecap="round" stroke-linejoin="round"/>
<path d="M20.3289 16.1914L21.9512 16.6392" stroke="black" stroke-width="0.475757" stroke-linecap="round" stroke-linejoin="round"/>
<path d="M21.6337 14.3984L23.256 14.844" stroke="black" stroke-width="0.475757" stroke-linecap="round" stroke-linejoin="round"/>
<path d="M22.3109 13.5195L23.9309 13.9651" stroke="black" stroke-width="0.475757" stroke-linecap="round" stroke-linejoin="round"/>
<path d="M22.9106 12.6035L24.533 13.0513" stroke="black" stroke-width="0.475757" stroke-linecap="round" stroke-linejoin="round"/>
<path d="M23.4767 11.6328L25.0967 12.0806" stroke="black" stroke-width="0.475757" stroke-linecap="round" stroke-linejoin="round"/>
<path d="M23.9119 10.7363L25.5342 11.1841" stroke="black" stroke-width="0.475757" stroke-linecap="round" stroke-linejoin="round"/>
<path d="M24.4551 9.73438L26.0774 10.1799" stroke="black" stroke-width="0.475757" stroke-linecap="round" stroke-linejoin="round"/>
<path d="M24.8644 8.82031L26.4867 9.26808" stroke="black" stroke-width="0.475757" stroke-linecap="round" stroke-linejoin="round"/>
<path d="M25.3201 7.85156L26.9424 8.29709" stroke="black" stroke-width="0.475757" stroke-linecap="round" stroke-linejoin="round"/>
<path d="M25.6755 6.91992L27.2956 7.36545" stroke="black" stroke-width="0.475757" stroke-linecap="round" stroke-linejoin="round"/>
<path d="M25.9535 5.98828L26.9434 6.25918" stroke="black" stroke-width="0.475757" stroke-linecap="round" stroke-linejoin="round"/>
<path d="M14.2203 4.34766L15.8427 4.79319" stroke="black" stroke-width="0.475757" stroke-linecap="round" stroke-linejoin="round"/>
<path d="M14.4769 5.49414L16.0969 5.94191" stroke="black" stroke-width="0.475757" stroke-linecap="round" stroke-linejoin="round"/>
<path d="M14.6907 6.64062L16.3107 7.0884" stroke="black" stroke-width="0.475757" stroke-linecap="round" stroke-linejoin="round"/>
<path d="M14.8109 7.68555L16.4333 8.13332" stroke="black" stroke-width="0.475757" stroke-linecap="round" stroke-linejoin="round"/>
<path d="M14.9044 8.73047L16.5268 9.17824" stroke="black" stroke-width="0.475757" stroke-linecap="round" stroke-linejoin="round"/>
<path d="M15.0315 9.87305L16.6539 10.3186" stroke="black" stroke-width="0.475757" stroke-linecap="round" stroke-linejoin="round"/>
<path d="M15.0315 10.8223L16.6539 11.27" stroke="black" stroke-width="0.475757" stroke-linecap="round" stroke-linejoin="round"/>
<path d="M15.1395 11.9492L16.7595 12.397" stroke="black" stroke-width="0.475757" stroke-linecap="round" stroke-linejoin="round"/>
<path d="M15.1395 13.0254L16.7595 13.4709" stroke="black" stroke-width="0.475757" stroke-linecap="round" stroke-linejoin="round"/>
<path d="M10.4797 12.9688L12.7534 13.5956" stroke="black" stroke-width="0.475757" stroke-linecap="round" stroke-linejoin="round"/>
<path d="M6.41687 14.3086L7.90286 14.7161" stroke="black" stroke-width="0.475757" stroke-linecap="round" stroke-linejoin="round"/>
<path d="M6.30615 15.2324L7.79215 15.6421" stroke="black" stroke-width="0.475757" stroke-linecap="round" stroke-linejoin="round"/>
<path d="M6.36633 16.2812L7.84997 16.691" stroke="black" stroke-width="0.475757" stroke-linecap="round" stroke-linejoin="round"/>
<path d="M6.51208 17.4082L7.99573 17.8179" stroke="black" stroke-width="0.475757" stroke-linecap="round" stroke-linejoin="round"/>
<path d="M6.65845 18.5059L8.14209 18.9156" stroke="black" stroke-width="0.475757" stroke-linecap="round" stroke-linejoin="round"/>
<path d="M6.91455 19.6035L8.40054 20.0132" stroke="black" stroke-width="0.475757" stroke-linecap="round" stroke-linejoin="round"/>
<path d="M11.9138 21.6328L14.9093 22.4567" stroke="black" stroke-width="0.475757" stroke-linecap="round" stroke-linejoin="round"/>
<path d="M12.1444 22.7891L14.4792 23.4316" stroke="black" stroke-width="0.475757" stroke-linecap="round" stroke-linejoin="round"/>
<path d="M12.4333 23.8965L14.2109 24.3846" stroke="black" stroke-width="0.475757" stroke-linecap="round" stroke-linejoin="round"/>
<path d="M13.1079 28.2363L16.9945 29.3065" stroke="black" stroke-width="0.475757" stroke-linecap="round" stroke-linejoin="round"/>
<path d="M14.8929 27.6074L18.5421 28.6127" stroke="black" stroke-width="0.475757" stroke-linecap="round" stroke-linejoin="round"/>
<path d="M16.4255 26.8184L19.722 27.7273" stroke="black" stroke-width="0.475757" stroke-linecap="round" stroke-linejoin="round"/>
<path d="M17.6415 26.0664L20.4489 26.8411" stroke="black" stroke-width="0.475757" stroke-linecap="round" stroke-linejoin="round"/>
<path d="M18.8738 25.3145L21.0416 25.9122" stroke="black" stroke-width="0.475757" stroke-linecap="round" stroke-linejoin="round"/>
<path d="M19.9575 24.5176L21.4999 24.9407" stroke="black" stroke-width="0.475757" stroke-linecap="round" stroke-linejoin="round"/>
<path d="M20.6393 23.6016L21.8455 23.9352" stroke="black" stroke-width="0.475757" stroke-linecap="round" stroke-linejoin="round"/>
<path d="M21.2404 22.6445L22.0915 22.8774" stroke="black" stroke-width="0.475757" stroke-linecap="round" stroke-linejoin="round"/>
<path d="M21.666 21.6875L22.282 21.8554" stroke="black" stroke-width="0.475757" stroke-linecap="round" stroke-linejoin="round"/>
<path d="M10.0631 13.9922L12.9763 14.7937" stroke="black" stroke-width="0.475757" stroke-linecap="round" stroke-linejoin="round"/>
<path d="M9.94971 15.002L12.8653 15.8035" stroke="black" stroke-width="0.475757" stroke-linecap="round" stroke-linejoin="round"/>
<path d="M9.83936 16.0117L11.2501 16.399" stroke="black" stroke-width="0.475757" stroke-linecap="round" stroke-linejoin="round"/>
<path d="M9.90588 17.1191L10.8299 17.3721" stroke="black" stroke-width="0.475757" stroke-linecap="round" stroke-linejoin="round"/>
<path d="M10.0941 18.1582L11.0205 18.4134" stroke="black" stroke-width="0.475757" stroke-linecap="round" stroke-linejoin="round"/>
<path d="M10.4254 19.252L11.7962 19.6303" stroke="black" stroke-width="0.475757" stroke-linecap="round" stroke-linejoin="round"/>
<path d="M10.8694 20.373L12.433 20.8051" stroke="black" stroke-width="0.475757" stroke-linecap="round" stroke-linejoin="round"/>
</g>
</svg>
