<svg width="29" height="34" viewBox="0 0 29 34" fill="none" xmlns="http://www.w3.org/2000/svg">
<g clip-path="url(#clip0_606_1045)">
<path d="M28.1196 9.01798C27.8056 10.4762 27.1063 12.2317 26.0477 14.2323C24.9868 16.2328 23.776 18.0883 22.9862 19.242C23.305 20.1483 23.4667 21.1926 23.4667 22.3701C23.4691 22.715 23.4453 25.1818 22.3344 27.7819C20.7145 31.5617 17.5483 33.7621 13.4116 33.9833C13.3093 33.9905 13.1047 34 12.8169 34C11.5133 34 8.96328 33.774 6.55119 32.2445C4.51257 30.9528 2.05528 28.3599 1.58666 23.2931C0.911085 22.4177 0.444843 21.2235 0.197449 19.7249C-0.00474797 18.5093 9.6101e-06 17.4627 9.6101e-06 17.2581C0.0023884 15.0268 0.559025 13.3379 1.65089 12.2389C2.7594 11.1232 4.01064 11.0352 4.36984 11.0352H4.40077L4.40552 11.0376C4.86701 11.04 5.30233 11.0947 5.70672 11.1898C6.1682 10.6475 6.69392 10.2645 7.22676 10.0147V6.1896C7.22676 4.75995 7.47178 3.53012 7.95943 2.53341C8.72302 0.970545 10.2906 0 12.0509 0C12.9787 0 13.8731 0.27356 14.6414 0.796894C15.631 1.47009 16.1377 2.29553 16.3209 2.64045C16.6967 3.31603 17.182 4.53397 17.5222 7.42895L19.0803 5.01448C20.5504 2.67851 22.4605 2.32883 23.4691 2.32883C25.1105 2.32883 26.3189 3.18282 26.6091 3.4088C27.6772 4.23186 28.8024 5.87085 28.1196 9.01798Z" fill="#C03540"/>
<path d="M12.7623 26.5998C12.7623 26.5998 12.9812 23.4075 15.0364 22.5773C15.0364 22.5773 9.56998 22.5773 9.43915 18.4667C9.43915 18.4667 9.52716 16.8492 11.1019 17.0228C11.1019 17.0228 15.1244 17.6342 17.8791 17.8982C17.8791 17.8982 21.0286 17.6365 21.0286 22.4012C21.0286 22.4012 21.1285 31.2289 13.2024 31.6286C13.2024 31.6286 4.28194 32.4159 3.84424 22.3156" stroke="white" stroke-width="0.951515" stroke-linecap="round" stroke-linejoin="round"/>
<path d="M11.6037 17.0988C11.6037 17.0988 12.1151 12.0463 8.82766 12.0463C8.82766 12.0463 5.54018 11.7537 6.65583 19.8344C6.65583 19.8344 7.04833 23.2194 9.31769 23.2004C9.31769 23.2004 10.9424 23.3003 11.2255 21.5471" stroke="white" stroke-width="0.951515" stroke-miterlimit="10" stroke-linecap="round"/>
<path d="M6.6605 14.4727C6.6605 14.4727 5.93497 13.4356 4.31026 13.4356C4.31026 13.4356 2.31683 13.3856 2.31683 17.2963C2.31683 17.2963 2.2312 22.092 4.48866 22.5844C4.48866 22.5844 6.42262 23.1196 7.12674 21.4997" stroke="white" stroke-width="0.951515" stroke-miterlimit="10" stroke-linecap="round"/>
<path d="M20.1624 19.0482C20.1624 19.0482 28.4406 7.86548 25.0913 5.30829C25.0913 5.30829 22.8005 3.47662 21.0259 6.30976L15.4691 14.9138C15.4691 14.9138 15.5024 6.1361 14.1655 3.78586C14.1655 3.78586 13.8896 3.22209 13.2425 2.77964C12.1483 2.03507 10.6164 2.40379 10.0359 3.59556C9.75285 4.17598 9.5459 5.00856 9.5459 6.20509V12.133" stroke="white" stroke-width="0.951515" stroke-linecap="round" stroke-linejoin="round"/>
<g opacity="0.6">
<path d="M12.646 3.58203L14.2874 4.05779" stroke="white" stroke-width="0.475757" stroke-linecap="round" stroke-linejoin="round"/>
<path d="M19.708 16.3086L21.3494 16.7844" stroke="white" stroke-width="0.475757" stroke-linecap="round" stroke-linejoin="round"/>
<path d="M19.0493 17.2031L20.6907 17.6789" stroke="white" stroke-width="0.475757" stroke-linecap="round" stroke-linejoin="round"/>
<path d="M20.3696 15.2988L22.011 15.7722" stroke="white" stroke-width="0.475757" stroke-linecap="round" stroke-linejoin="round"/>
<path d="M21.0547 14.3652L22.6937 14.8386" stroke="white" stroke-width="0.475757" stroke-linecap="round" stroke-linejoin="round"/>
<path d="M21.6616 13.3906L23.303 13.8664" stroke="white" stroke-width="0.475757" stroke-linecap="round" stroke-linejoin="round"/>
<path d="M22.2344 12.3594L23.8734 12.8351" stroke="white" stroke-width="0.475757" stroke-linecap="round" stroke-linejoin="round"/>
<path d="M22.6748 11.4082L24.3162 11.884" stroke="white" stroke-width="0.475757" stroke-linecap="round" stroke-linejoin="round"/>
<path d="M23.2241 10.3438L24.8655 10.8171" stroke="white" stroke-width="0.475757" stroke-linecap="round" stroke-linejoin="round"/>
<path d="M23.6382 9.37109L25.2795 9.84685" stroke="white" stroke-width="0.475757" stroke-linecap="round" stroke-linejoin="round"/>
<path d="M24.0996 8.3418L25.741 8.81517" stroke="white" stroke-width="0.475757" stroke-linecap="round" stroke-linejoin="round"/>
<path d="M24.459 7.35352L26.098 7.82689" stroke="white" stroke-width="0.475757" stroke-linecap="round" stroke-linejoin="round"/>
<path d="M24.7397 6.36328L25.7412 6.65111" stroke="white" stroke-width="0.475757" stroke-linecap="round" stroke-linejoin="round"/>
<path d="M12.8696 4.61914L14.511 5.09252" stroke="white" stroke-width="0.475757" stroke-linecap="round" stroke-linejoin="round"/>
<path d="M13.1289 5.83789L14.7679 6.31365" stroke="white" stroke-width="0.475757" stroke-linecap="round" stroke-linejoin="round"/>
<path d="M13.3452 7.05664L14.9842 7.5324" stroke="white" stroke-width="0.475757" stroke-linecap="round" stroke-linejoin="round"/>
<path d="M13.4668 8.16602L15.1082 8.64177" stroke="white" stroke-width="0.475757" stroke-linecap="round" stroke-linejoin="round"/>
<path d="M13.5615 9.27734L15.2029 9.7531" stroke="white" stroke-width="0.475757" stroke-linecap="round" stroke-linejoin="round"/>
<path d="M13.6904 10.4902L15.3318 10.9636" stroke="white" stroke-width="0.475757" stroke-linecap="round" stroke-linejoin="round"/>
<path d="M13.6904 11.498L15.3318 11.9738" stroke="white" stroke-width="0.475757" stroke-linecap="round" stroke-linejoin="round"/>
<path d="M13.7993 12.6953L15.4383 13.1711" stroke="white" stroke-width="0.475757" stroke-linecap="round" stroke-linejoin="round"/>
<path d="M13.7993 13.8398L15.4383 14.3132" stroke="white" stroke-width="0.475757" stroke-linecap="round" stroke-linejoin="round"/>
<path d="M9.08496 13.7793L11.3852 14.4454" stroke="white" stroke-width="0.475757" stroke-linecap="round" stroke-linejoin="round"/>
<path d="M4.97461 15.2031L6.478 15.6361" stroke="white" stroke-width="0.475757" stroke-linecap="round" stroke-linejoin="round"/>
<path d="M4.8623 16.1855L6.3657 16.6209" stroke="white" stroke-width="0.475757" stroke-linecap="round" stroke-linejoin="round"/>
<path d="M4.92383 17.2988L6.42484 17.7341" stroke="white" stroke-width="0.475757" stroke-linecap="round" stroke-linejoin="round"/>
<path d="M5.07129 18.4961L6.5723 18.9314" stroke="white" stroke-width="0.475757" stroke-linecap="round" stroke-linejoin="round"/>
<path d="M5.21924 19.6621L6.72025 20.0974" stroke="white" stroke-width="0.475757" stroke-linecap="round" stroke-linejoin="round"/>
<path d="M5.47852 20.8281L6.98191 21.2634" stroke="white" stroke-width="0.475757" stroke-linecap="round" stroke-linejoin="round"/>
<path d="M10.5361 22.9844L13.5667 23.8598" stroke="white" stroke-width="0.475757" stroke-linecap="round" stroke-linejoin="round"/>
<path d="M10.769 24.2129L13.1312 24.8956" stroke="white" stroke-width="0.475757" stroke-linecap="round" stroke-linejoin="round"/>
<path d="M11.0615 25.3906L12.8599 25.9092" stroke="white" stroke-width="0.475757" stroke-linecap="round" stroke-linejoin="round"/>
<path d="M11.7441 30.002L15.6763 31.139" stroke="white" stroke-width="0.475757" stroke-linecap="round" stroke-linejoin="round"/>
<path d="M13.5498 29.334L17.2417 30.4021" stroke="white" stroke-width="0.475757" stroke-linecap="round" stroke-linejoin="round"/>
<path d="M15.1006 28.4941L18.4356 29.4599" stroke="white" stroke-width="0.475757" stroke-linecap="round" stroke-linejoin="round"/>
<path d="M16.3306 27.6953L19.1708 28.5184" stroke="white" stroke-width="0.475757" stroke-linecap="round" stroke-linejoin="round"/>
<path d="M17.5771 26.8965L19.7704 27.5316" stroke="white" stroke-width="0.475757" stroke-linecap="round" stroke-linejoin="round"/>
<path d="M18.6738 26.0508L20.2343 26.5004" stroke="white" stroke-width="0.475757" stroke-linecap="round" stroke-linejoin="round"/>
<path d="M19.3633 25.0762L20.5836 25.4306" stroke="white" stroke-width="0.475757" stroke-linecap="round" stroke-linejoin="round"/>
<path d="M19.9722 24.0605L20.8333 24.3079" stroke="white" stroke-width="0.475757" stroke-linecap="round" stroke-linejoin="round"/>
<path d="M20.4028 23.043L21.0261 23.2214" stroke="white" stroke-width="0.475757" stroke-linecap="round" stroke-linejoin="round"/>
<path d="M8.66357 14.8672L11.6109 15.7188" stroke="white" stroke-width="0.475757" stroke-linecap="round" stroke-linejoin="round"/>
<path d="M8.54932 15.9395L11.499 16.7911" stroke="white" stroke-width="0.475757" stroke-linecap="round" stroke-linejoin="round"/>
<path d="M8.4375 17.0117L9.86477 17.4232" stroke="white" stroke-width="0.475757" stroke-linecap="round" stroke-linejoin="round"/>
<path d="M8.50439 18.1895L9.43926 18.4583" stroke="white" stroke-width="0.475757" stroke-linecap="round" stroke-linejoin="round"/>
<path d="M8.69482 19.293L9.63207 19.5642" stroke="white" stroke-width="0.475757" stroke-linecap="round" stroke-linejoin="round"/>
<path d="M9.02979 20.4551L10.4166 20.8571" stroke="white" stroke-width="0.475757" stroke-linecap="round" stroke-linejoin="round"/>
<path d="M9.47949 21.6465L11.0614 22.1056" stroke="white" stroke-width="0.475757" stroke-linecap="round" stroke-linejoin="round"/>
</g>
</g>
<defs>
<clipPath id="clip0_606_1045">
<rect width="28.329" height="34" fill="white"/>
</clipPath>
</defs>
</svg>
