<svg width="25" height="25" viewBox="0 0 25 25" fill="none" xmlns="http://www.w3.org/2000/svg">
<path d="M14.3787 10.4221C13.2741 10.4221 12.3787 11.3175 12.3787 12.4221C12.3787 13.5267 13.2741 14.4221 14.3787 14.4221C15.4833 14.4221 16.3787 13.5267 16.3787 12.4221C16.3787 11.3175 15.4833 10.4221 14.3787 10.4221Z" fill="black"/>
<path fill-rule="evenodd" clip-rule="evenodd" d="M7.1213 3.42206C6.24908 3.42206 5.40629 3.70693 4.71723 4.2251C4.33107 4.5155 4.08559 4.88771 3.92081 5.18508L3.84012 5.33072C2.94938 6.06298 2.37866 7.17592 2.37866 8.42206V16.4221C2.37866 18.6312 4.16952 20.4221 6.37866 20.4221H18.3787C20.5878 20.4221 22.3787 18.6312 22.3787 16.4221V8.42206C22.3787 6.21292 20.5878 4.42206 18.3787 4.42206H10.2818C9.55329 3.77954 8.61308 3.42206 7.63602 3.42206H7.1213ZM10.3787 12.4221C10.3787 10.2129 12.1696 8.42206 14.3787 8.42206C16.5878 8.42206 18.3787 10.2129 18.3787 12.4221C18.3787 14.6312 16.5878 16.4221 14.3787 16.4221C12.1696 16.4221 10.3787 14.6312 10.3787 12.4221ZM7.37866 10.4221C7.93094 10.4221 8.37866 9.97434 8.37866 9.42206C8.37866 8.86978 7.93094 8.42206 7.37866 8.42206C6.82638 8.42206 6.37866 8.86978 6.37866 9.42206C6.37866 9.97434 6.82638 10.4221 7.37866 10.4221Z" fill="black"/>
</svg>
