<svg width="24" height="24" viewBox="0 0 24 24" fill="none" xmlns="http://www.w3.org/2000/svg">
<path d="M23.278 14.7332L20.0896 12.2274C19.8944 12.0744 19.8944 11.8233 20.0896 11.6699L23.2781 9.1647C23.4739 9.01145 23.5557 8.75252 23.4601 8.58963C23.3644 8.42721 23.0971 8.36939 22.8667 8.46116L19.0753 9.97132C18.8448 10.064 18.6276 9.93767 18.5931 9.69143L18.0229 5.6438C17.9877 5.39772 17.8027 5.19629 17.611 5.19629C17.4203 5.19629 17.2354 5.39772 17.2011 5.64365L16.6307 9.69158C16.5958 9.93782 16.3789 10.0639 16.1481 9.97147L12.4194 8.4864C12.1881 8.39432 11.8114 8.39432 11.5808 8.4864L7.85144 9.97147C7.6208 10.0639 7.40363 9.93782 7.36906 9.69158L6.79935 5.64365C6.76417 5.39772 6.57942 5.19629 6.38855 5.19629C6.19706 5.19629 6.01185 5.39772 5.97744 5.64365L5.40696 9.69158C5.37239 9.93782 5.15537 10.0639 4.92473 9.97147L1.13344 8.46162C0.902954 8.36939 0.636069 8.42751 0.540327 8.58978C0.444738 8.75282 0.526256 9.01191 0.721411 9.16485L3.91026 11.6701C4.10557 11.8235 4.10557 12.0746 3.91026 12.2277L0.721411 14.7332C0.525644 14.8865 0.444585 15.1608 0.540021 15.3425C0.635916 15.5245 0.902801 15.5976 1.13298 15.5053L4.89032 13.9963C5.12126 13.9041 5.33599 14.0297 5.36827 14.2759L5.91029 18.3589C5.94302 18.6046 6.15775 18.8059 6.38747 18.8059C6.61689 18.8059 6.83177 18.6048 6.86466 18.3589L7.4076 14.2759C7.43972 14.0297 7.65537 13.9043 7.88509 13.9963L11.5808 15.4796C11.8111 15.5722 12.188 15.5722 12.4185 15.4796L16.1136 13.9963C16.3436 13.9041 16.5586 14.0297 16.5915 14.2759L17.1344 18.3589C17.1669 18.6046 17.3818 18.8059 17.6109 18.8059C17.8406 18.8059 18.0555 18.6048 18.088 18.3589L18.631 14.2759C18.664 14.0297 18.8788 13.9043 19.1088 13.9963L22.8666 15.5053C23.096 15.5976 23.3636 15.5244 23.4594 15.3427C23.5553 15.1613 23.4737 14.8864 23.278 14.7332ZM15.1659 12.2592L12.3579 14.421C12.1614 14.5725 11.839 14.5725 11.643 14.421L8.8341 12.2592C8.63772 12.1078 8.63619 11.8585 8.83104 11.7048L11.6452 9.48817C11.84 9.33446 12.1595 9.33446 12.3545 9.48817L15.1687 11.7048C15.364 11.8583 15.3628 12.1074 15.1659 12.2592Z" fill="black"/>
</svg>
